<svg width="14" height="14" viewBox="0 0 14 14" fill="none" xmlns="http://www.w3.org/2000/svg">
<g clip-path="url(#clip0_1_2138)">
<path d="M12.9818 6.99988C12.9818 3.69622 10.3037 1.01807 7.00001 1.01807C3.69634 1.01807 1.01819 3.69622 1.01819 6.99988C1.01819 10.3036 3.69634 12.9817 7.00001 12.9817C10.3037 12.9817 12.9818 10.3036 12.9818 6.99988Z" stroke="white" stroke-width="1.6"/>
<path fill-rule="evenodd" clip-rule="evenodd" d="M13.5834 1.46517C14.0435 1.78354 14.1367 2.38577 13.7916 2.81026L6.7649 11.4548L2.79616 7.18262C2.42187 6.77973 2.47245 6.17319 2.9091 5.82786C3.34574 5.48253 4.00313 5.52919 4.3774 5.93207L6.65654 8.38544L12.1256 1.65732C12.4706 1.23282 13.1233 1.14678 13.5834 1.46517Z" fill="white"/>
</g>
<defs>
<clipPath id="clip0_1_2138">
<rect width="14" height="14" fill="white"/>
</clipPath>
</defs>
</svg>
