<svg width="37" height="18" viewBox="0 0 37 18" fill="none" xmlns="http://www.w3.org/2000/svg">
<path d="M4.69531 17.18C3.72198 17.18 2.94198 16.9867 2.35531 16.6C1.76865 16.2133 1.34198 15.6667 1.07531 14.96C0.821979 14.24 0.695313 13.4 0.695313 12.44C0.695313 11.8933 0.741979 11.4133 0.835313 11C0.928646 10.5867 1.06198 10.2267 1.23531 9.92C1.42198 9.6 1.63531 9.32667 1.87531 9.1C2.12865 8.86 2.40198 8.64667 2.69531 8.46C2.16198 8.1 1.72865 7.63333 1.39531 7.06C1.06198 6.47333 0.895313 5.73333 0.895313 4.84C0.895313 3.98667 1.02865 3.24667 1.29531 2.62C1.56198 1.99333 1.97531 1.51333 2.53531 1.18C3.10865 0.833333 3.82865 0.659999 4.69531 0.659999C5.56198 0.659999 6.26865 0.833333 6.81531 1.18C7.37531 1.51333 7.78865 1.99333 8.05531 2.62C8.32198 3.24667 8.45531 3.98667 8.45531 4.84C8.45531 5.74667 8.28865 6.48667 7.95531 7.06C7.63531 7.63333 7.20198 8.1 6.65531 8.46C6.94865 8.64667 7.21531 8.86 7.45531 9.1C7.70865 9.32667 7.92198 9.6 8.09531 9.92C8.28198 10.2267 8.42198 10.5867 8.51531 11C8.62198 11.4133 8.67531 11.8933 8.67531 12.44C8.67531 13.4 8.54198 14.24 8.27531 14.96C8.02198 15.6667 7.60198 16.2133 7.01531 16.6C6.44198 16.9867 5.66865 17.18 4.69531 17.18ZM4.69531 15.48C5.21531 15.48 5.61531 15.3467 5.89531 15.08C6.17531 14.8133 6.36198 14.4533 6.45531 14C6.56198 13.5467 6.61531 13.04 6.61531 12.48C6.61531 11.9733 6.55531 11.5 6.43531 11.06C6.32865 10.6067 6.13531 10.24 5.85531 9.96C5.57531 9.66667 5.18865 9.52 4.69531 9.52C4.20198 9.52 3.80865 9.66 3.51531 9.94C3.23531 10.22 3.03531 10.5867 2.91531 11.04C2.79531 11.48 2.73531 11.96 2.73531 12.48C2.73531 13.04 2.78865 13.5467 2.89531 14C3.00198 14.4533 3.19531 14.8133 3.47531 15.08C3.76865 15.3467 4.17531 15.48 4.69531 15.48ZM4.69531 7.48C5.14865 7.46667 5.48865 7.32667 5.71531 7.06C5.95531 6.79333 6.12198 6.45333 6.21531 6.04C6.30865 5.61333 6.35531 5.17333 6.35531 4.72C6.35531 4.05333 6.23531 3.48667 5.99531 3.02C5.75531 2.55333 5.32198 2.32 4.69531 2.32C4.06865 2.32 3.62865 2.55333 3.37531 3.02C3.12198 3.48667 2.99531 4.05333 2.99531 4.72C2.99531 5.17333 3.04198 5.61333 3.13531 6.04C3.22865 6.45333 3.39531 6.79333 3.63531 7.06C3.88865 7.32667 4.24198 7.46667 4.69531 7.48ZM14.5358 17.16C13.5624 17.16 12.7891 16.9733 12.2158 16.6C11.6424 16.2267 11.2291 15.6867 10.9758 14.98C10.7358 14.2733 10.6158 13.4333 10.6158 12.46H12.7558C12.7558 12.94 12.7958 13.4133 12.8758 13.88C12.9558 14.3333 13.1224 14.7133 13.3758 15.02C13.6424 15.3133 14.0424 15.46 14.5758 15.46C15.1624 15.46 15.5824 15.2933 15.8358 14.96C16.0891 14.6133 16.2491 14.1533 16.3158 13.58C16.3824 12.9933 16.4158 12.3333 16.4158 11.6C16.4158 10.8667 16.3758 10.2467 16.2958 9.74C16.2158 9.22 16.0491 8.82667 15.7958 8.56C15.5424 8.28 15.1424 8.14 14.5958 8.14C14.1558 8.14 13.7824 8.28 13.4758 8.56C13.1691 8.82667 12.9424 9.13333 12.7958 9.48H10.9758V0.799999H17.9558V2.94H12.9158L12.7758 7.42C13.0424 7.14 13.3691 6.92 13.7558 6.76C14.1558 6.6 14.6091 6.52 15.1158 6.52C15.9958 6.52 16.6824 6.72667 17.1758 7.14C17.6824 7.55333 18.0358 8.12 18.2358 8.84C18.4491 9.56 18.5558 10.3867 18.5558 11.32C18.5558 12.1467 18.4958 12.92 18.3758 13.64C18.2558 14.3467 18.0424 14.9667 17.7358 15.5C17.4424 16.02 17.0358 16.4267 16.5158 16.72C15.9958 17.0133 15.3358 17.16 14.5358 17.16ZM24.9675 17L29.4275 0.779999H31.2675L26.8275 17H24.9675ZM23.0475 9.4C21.9408 9.4 21.1408 9.06 20.6475 8.38C20.1542 7.7 19.9075 6.78667 19.9075 5.64V4.38C19.9075 3.19333 20.1475 2.28 20.6275 1.64C21.1075 0.999999 21.9142 0.679999 23.0475 0.679999C24.1808 0.679999 24.9875 0.986666 25.4675 1.6C25.9475 2.21333 26.1875 3.10667 26.1875 4.28V5.7C26.1875 6.86 25.9408 7.76667 25.4475 8.42C24.9675 9.07333 24.1675 9.4 23.0475 9.4ZM23.0475 7.78C23.3942 7.78 23.6475 7.68667 23.8075 7.5C23.9808 7.3 24.0942 7.04 24.1475 6.72C24.2142 6.4 24.2475 6.06 24.2475 5.7V4.28C24.2475 3.73333 24.1742 3.26667 24.0275 2.88C23.8942 2.49333 23.5675 2.3 23.0475 2.3C22.5275 2.3 22.2008 2.5 22.0675 2.9C21.9342 3.28667 21.8675 3.75333 21.8675 4.3V5.72C21.8675 6.08 21.8942 6.42 21.9475 6.74C22.0142 7.04667 22.1275 7.3 22.2875 7.5C22.4608 7.68667 22.7142 7.78 23.0475 7.78ZM33.1475 17.1C32.0408 17.1 31.2408 16.7667 30.7475 16.1C30.2675 15.42 30.0275 14.5 30.0275 13.34V12.08C30.0275 10.9067 30.2608 10 30.7275 9.36C31.2075 8.70667 32.0142 8.38 33.1475 8.38C34.2942 8.38 35.1008 8.69333 35.5675 9.32C36.0475 9.93333 36.2875 10.8267 36.2875 12V13.4C36.2875 14.5733 36.0408 15.4867 35.5475 16.14C35.0675 16.78 34.2675 17.1 33.1475 17.1ZM33.1475 15.48C33.4942 15.48 33.7542 15.3867 33.9275 15.2C34.1008 15 34.2142 14.74 34.2675 14.42C34.3208 14.1 34.3475 13.7667 34.3475 13.42V11.98C34.3475 11.4333 34.2742 10.9667 34.1275 10.58C33.9942 10.1933 33.6675 10 33.1475 10C32.6275 10 32.3008 10.2 32.1675 10.6C32.0342 10.9867 31.9675 11.4533 31.9675 12V13.42C31.9675 13.78 31.9942 14.12 32.0475 14.44C32.1142 14.7467 32.2275 15 32.3875 15.2C32.5608 15.3867 32.8142 15.48 33.1475 15.48Z" fill="black"/>
</svg>
