<svg width="37" height="18" viewBox="0 0 37 18" fill="none" xmlns="http://www.w3.org/2000/svg">
<path d="M4.75719 17.18C3.82385 17.18 3.06385 16.9467 2.47719 16.48C1.89052 16 1.45719 15.36 1.17719 14.56C0.910521 13.7467 0.777188 12.8467 0.777188 11.86V6.4C0.777188 5.34667 0.897188 4.38667 1.13719 3.52C1.37719 2.65333 1.78385 1.96 2.35719 1.44C2.94385 0.919999 3.74385 0.659999 4.75719 0.659999C5.59719 0.659999 6.30385 0.813333 6.87719 1.12C7.46385 1.42667 7.91052 1.87333 8.21719 2.46C8.53719 3.04667 8.70385 3.76 8.71719 4.6C8.71719 4.62667 8.71719 4.66667 8.71719 4.72C8.73052 4.76 8.73719 4.8 8.73719 4.84H6.57719C6.57719 4.05333 6.45052 3.45333 6.19719 3.04C5.94385 2.62667 5.46385 2.42 4.75719 2.42C4.37052 2.42 4.03719 2.54667 3.75719 2.8C3.47719 3.04 3.26385 3.41333 3.11719 3.92C2.98385 4.42667 2.91719 5.08 2.91719 5.88V8.34C3.13052 8.00667 3.43052 7.74 3.81719 7.54C4.21719 7.32667 4.70385 7.22 5.27719 7.22C6.17052 7.22 6.87052 7.41333 7.37719 7.8C7.88385 8.18667 8.24385 8.73333 8.45719 9.44C8.67052 10.1333 8.77719 10.9533 8.77719 11.9C8.77719 12.8733 8.64385 13.76 8.37719 14.56C8.11052 15.36 7.68385 16 7.09719 16.48C6.51052 16.9467 5.73052 17.18 4.75719 17.18ZM4.75719 15.4C5.23719 15.4 5.61052 15.2667 5.87719 15C6.14385 14.72 6.33052 14.3533 6.43719 13.9C6.55719 13.4467 6.61719 12.9533 6.61719 12.42C6.61719 11.78 6.58385 11.1867 6.51719 10.64C6.46385 10.0933 6.31052 9.66 6.05719 9.34C5.80385 9.00667 5.37052 8.84 4.75719 8.84C4.46385 8.84 4.19719 8.89333 3.95719 9C3.71719 9.10667 3.51052 9.24667 3.33719 9.42C3.16385 9.58 3.02385 9.75333 2.91719 9.94V12.36C2.91719 12.9067 2.97052 13.4133 3.07719 13.88C3.19719 14.3467 3.39052 14.72 3.65719 15C3.92385 15.2667 4.29052 15.4 4.75719 15.4ZM14.5358 17.16C13.5624 17.16 12.7891 16.9733 12.2158 16.6C11.6424 16.2267 11.2291 15.6867 10.9758 14.98C10.7358 14.2733 10.6158 13.4333 10.6158 12.46H12.7558C12.7558 12.94 12.7958 13.4133 12.8758 13.88C12.9558 14.3333 13.1224 14.7133 13.3758 15.02C13.6424 15.3133 14.0424 15.46 14.5758 15.46C15.1624 15.46 15.5824 15.2933 15.8358 14.96C16.0891 14.6133 16.2491 14.1533 16.3158 13.58C16.3824 12.9933 16.4158 12.3333 16.4158 11.6C16.4158 10.8667 16.3758 10.2467 16.2958 9.74C16.2158 9.22 16.0491 8.82667 15.7958 8.56C15.5424 8.28 15.1424 8.14 14.5958 8.14C14.1558 8.14 13.7824 8.28 13.4758 8.56C13.1691 8.82667 12.9424 9.13333 12.7958 9.48H10.9758V0.799999H17.9558V2.94H12.9158L12.7758 7.42C13.0424 7.14 13.3691 6.92 13.7558 6.76C14.1558 6.6 14.6091 6.52 15.1158 6.52C15.9958 6.52 16.6824 6.72667 17.1758 7.14C17.6824 7.55333 18.0358 8.12 18.2358 8.84C18.4491 9.56 18.5558 10.3867 18.5558 11.32C18.5558 12.1467 18.4958 12.92 18.3758 13.64C18.2558 14.3467 18.0424 14.9667 17.7358 15.5C17.4424 16.02 17.0358 16.4267 16.5158 16.72C15.9958 17.0133 15.3358 17.16 14.5358 17.16ZM24.9675 17L29.4275 0.779999H31.2675L26.8275 17H24.9675ZM23.0475 9.4C21.9408 9.4 21.1408 9.06 20.6475 8.38C20.1542 7.7 19.9075 6.78667 19.9075 5.64V4.38C19.9075 3.19333 20.1475 2.28 20.6275 1.64C21.1075 0.999999 21.9142 0.679999 23.0475 0.679999C24.1808 0.679999 24.9875 0.986666 25.4675 1.6C25.9475 2.21333 26.1875 3.10667 26.1875 4.28V5.7C26.1875 6.86 25.9408 7.76667 25.4475 8.42C24.9675 9.07333 24.1675 9.4 23.0475 9.4ZM23.0475 7.78C23.3942 7.78 23.6475 7.68667 23.8075 7.5C23.9808 7.3 24.0942 7.04 24.1475 6.72C24.2142 6.4 24.2475 6.06 24.2475 5.7V4.28C24.2475 3.73333 24.1742 3.26667 24.0275 2.88C23.8942 2.49333 23.5675 2.3 23.0475 2.3C22.5275 2.3 22.2008 2.5 22.0675 2.9C21.9342 3.28667 21.8675 3.75333 21.8675 4.3V5.72C21.8675 6.08 21.8942 6.42 21.9475 6.74C22.0142 7.04667 22.1275 7.3 22.2875 7.5C22.4608 7.68667 22.7142 7.78 23.0475 7.78ZM33.1475 17.1C32.0408 17.1 31.2408 16.7667 30.7475 16.1C30.2675 15.42 30.0275 14.5 30.0275 13.34V12.08C30.0275 10.9067 30.2608 10 30.7275 9.36C31.2075 8.70667 32.0142 8.38 33.1475 8.38C34.2942 8.38 35.1008 8.69333 35.5675 9.32C36.0475 9.93333 36.2875 10.8267 36.2875 12V13.4C36.2875 14.5733 36.0408 15.4867 35.5475 16.14C35.0675 16.78 34.2675 17.1 33.1475 17.1ZM33.1475 15.48C33.4942 15.48 33.7542 15.3867 33.9275 15.2C34.1008 15 34.2142 14.74 34.2675 14.42C34.3208 14.1 34.3475 13.7667 34.3475 13.42V11.98C34.3475 11.4333 34.2742 10.9667 34.1275 10.58C33.9942 10.1933 33.6675 10 33.1475 10C32.6275 10 32.3008 10.2 32.1675 10.6C32.0342 10.9867 31.9675 11.4533 31.9675 12V13.42C31.9675 13.78 31.9942 14.12 32.0475 14.44C32.1142 14.7467 32.2275 15 32.3875 15.2C32.5608 15.3867 32.8142 15.48 33.1475 15.48Z" fill="black"/>
</svg>
