<svg width="35" height="18" viewBox="0 0 35 18" fill="none" xmlns="http://www.w3.org/2000/svg">
<path d="M1.78188 17L4.70188 2.48H0.361875V0.799999H6.84188V1.84L3.84188 17H1.78188ZM8.45672 17V15.48L12.5767 9.06C12.8834 8.58 13.1634 8.13333 13.4167 7.72C13.6834 7.30667 13.8967 6.87333 14.0567 6.42C14.2301 5.95333 14.3167 5.42 14.3167 4.82C14.3167 4.07333 14.1967 3.48667 13.9567 3.06C13.7167 2.63333 13.2967 2.42 12.6967 2.42C12.1901 2.42 11.7967 2.56 11.5167 2.84C11.2367 3.12 11.0434 3.48667 10.9367 3.94C10.8301 4.39333 10.7767 4.88 10.7767 5.4V5.94H8.63672V5.38C8.63672 4.40667 8.76339 3.57333 9.01672 2.88C9.28339 2.17333 9.70339 1.62667 10.2767 1.24C10.8634 0.853333 11.6367 0.659999 12.5967 0.659999C13.9034 0.659999 14.8767 1.03333 15.5167 1.78C16.1567 2.51333 16.4767 3.53333 16.4767 4.84C16.4767 5.53333 16.3901 6.14 16.2167 6.66C16.0567 7.18 15.8434 7.66667 15.5767 8.12C15.3101 8.57333 15.0167 9.04 14.6967 9.52L10.9767 15.2H16.0967V17H8.45672ZM22.9675 17L27.4275 0.779999H29.2675L24.8275 17H22.9675ZM21.0475 9.4C19.9408 9.4 19.1408 9.06 18.6475 8.38C18.1542 7.7 17.9075 6.78667 17.9075 5.64V4.38C17.9075 3.19333 18.1475 2.28 18.6275 1.64C19.1075 0.999999 19.9142 0.679999 21.0475 0.679999C22.1808 0.679999 22.9875 0.986666 23.4675 1.6C23.9475 2.21333 24.1875 3.10667 24.1875 4.28V5.7C24.1875 6.86 23.9408 7.76667 23.4475 8.42C22.9675 9.07333 22.1675 9.4 21.0475 9.4ZM21.0475 7.78C21.3942 7.78 21.6475 7.68667 21.8075 7.5C21.9808 7.3 22.0942 7.04 22.1475 6.72C22.2142 6.4 22.2475 6.06 22.2475 5.7V4.28C22.2475 3.73333 22.1742 3.26667 22.0275 2.88C21.8942 2.49333 21.5675 2.3 21.0475 2.3C20.5275 2.3 20.2008 2.5 20.0675 2.9C19.9342 3.28667 19.8675 3.75333 19.8675 4.3V5.72C19.8675 6.08 19.8942 6.42 19.9475 6.74C20.0142 7.04667 20.1275 7.3 20.2875 7.5C20.4608 7.68667 20.7142 7.78 21.0475 7.78ZM31.1475 17.1C30.0408 17.1 29.2408 16.7667 28.7475 16.1C28.2675 15.42 28.0275 14.5 28.0275 13.34V12.08C28.0275 10.9067 28.2608 10 28.7275 9.36C29.2075 8.70667 30.0142 8.38 31.1475 8.38C32.2942 8.38 33.1008 8.69333 33.5675 9.32C34.0475 9.93333 34.2875 10.8267 34.2875 12V13.4C34.2875 14.5733 34.0408 15.4867 33.5475 16.14C33.0675 16.78 32.2675 17.1 31.1475 17.1ZM31.1475 15.48C31.4942 15.48 31.7542 15.3867 31.9275 15.2C32.1008 15 32.2142 14.74 32.2675 14.42C32.3208 14.1 32.3475 13.7667 32.3475 13.42V11.98C32.3475 11.4333 32.2742 10.9667 32.1275 10.58C31.9942 10.1933 31.6675 10 31.1475 10C30.6275 10 30.3008 10.2 30.1675 10.6C30.0342 10.9867 29.9675 11.4533 29.9675 12V13.42C29.9675 13.78 29.9942 14.12 30.0475 14.44C30.1142 14.7467 30.2275 15 30.3875 15.2C30.5608 15.3867 30.8142 15.48 31.1475 15.48Z" fill="black"/>
</svg>
