<svg width="102" height="26" viewBox="0 0 102 26" fill="none" xmlns="http://www.w3.org/2000/svg">
<path d="M0.0632133 8.17082H10.3188V25.214H0.0632133V8.17082ZM0.0632158 0.0119629H10.3821V6.37845H0.0632158V0.0119629Z" fill="black"/>
<path d="M21.4203 10.3718H21.6102C22.7286 9.51232 24.0159 8.85192 25.4719 8.39076C26.9491 7.92959 28.6899 7.69897 30.6946 7.69897C33.6278 7.69897 35.8857 8.25447 37.4684 9.36557C39.051 10.4766 39.8423 12.1747 39.8423 14.4596V25.2138H29.5868V17.9501C29.5868 16.8599 29.2808 16.0738 28.6689 15.5917C28.0569 15.0885 27.1601 14.837 25.9783 14.837C24.7122 14.837 23.6677 15.1304 22.8447 15.7174C22.0217 16.2835 21.6102 17.2687 21.6102 18.6733V25.2138H11.3547V8.17066H21.4203V10.3718Z" fill="black"/>
<path d="M60.5403 10.026V2.44775H70.7959V25.2139H60.7298V23.5159H60.5403C59.4851 24.3544 58.3034 24.9729 56.9951 25.3712C55.6868 25.7904 54.1462 26.0001 52.3737 26.0001C48.4487 26.0001 45.4945 25.2349 43.5108 23.7046C41.5483 22.1742 40.5672 19.8893 40.5672 16.8496C40.5672 13.8099 41.5483 11.5249 43.5108 9.99457C45.4945 8.4642 48.4487 7.69908 52.3737 7.69908C54.1252 7.69908 55.6339 7.89825 56.9001 8.29653C58.1662 8.69482 59.3163 9.27129 60.3503 10.026H60.5403ZM55.9188 19.9941C59.2108 19.9941 60.8566 18.9459 60.8566 16.8496C60.8566 14.7532 59.2108 13.7051 55.9188 13.7051C54.2307 13.7051 53.0173 13.9671 52.2787 14.4912C51.5402 15.0153 51.1709 15.8014 51.1709 16.8496C51.1709 17.8977 51.5402 18.6838 52.2787 19.2079C53.0173 19.732 54.2307 19.9941 55.9188 19.9941Z" fill="black"/>
<path d="M86.7748 7.35303C92.2189 7.35303 96.1124 8.13919 98.4547 9.71141C100.818 11.2627 102 13.5896 102 16.6922C102 19.7948 100.818 22.1217 98.4547 23.673C96.0912 25.2243 92.1977 25.9999 86.7748 25.9999C81.3302 25.9999 77.4264 25.2243 75.0629 23.673C72.7 22.1217 71.5183 19.7948 71.5183 16.6922C71.5183 13.5896 72.7 11.2627 75.0629 9.71141C77.4264 8.13919 81.3302 7.35303 86.7748 7.35303ZM86.7748 19.931C89.8771 19.931 91.4276 18.8514 91.4276 16.6922C91.4276 15.6231 91.0582 14.816 90.3201 14.271C89.5813 13.7049 88.3996 13.4219 86.7748 13.4219C85.1501 13.4219 83.9683 13.7049 83.2296 14.271C82.4908 14.816 82.1221 15.6231 82.1221 16.6922C82.1221 17.7404 82.4908 18.5475 83.2296 19.1135C83.9683 19.6585 85.1501 19.931 86.7748 19.931Z" fill="black"/>
<path d="M72.047 0C72.6113 1.51012 73.6096 2.73529 75.0424 3.67553C77.4059 5.22682 81.3097 6.00246 86.7537 6.00246C92.1772 6.00246 96.0701 5.22682 98.4336 3.67553C99.8665 2.73529 100.865 1.51012 101.429 0L72.047 0Z" fill="black"/>
<path d="M71.4948 0C72.0802 1.55433 73.1171 2.81538 74.6042 3.78315C77.0577 5.37987 81.1111 6.1782 86.7634 6.1782C92.3945 6.1782 96.4365 5.37987 98.8905 3.78315C100.378 2.81538 101.414 1.55433 102 0H71.4948Z" fill="black"/>
</svg>
